<?xml version="1.0" encoding="UTF-8" standalone="no"?>
<!-- Created with Inkscape (http://www.inkscape.org/) -->
<svg
   xmlns:dc="http://purl.org/dc/elements/1.1/"
   xmlns:cc="http://creativecommons.org/ns#"
   xmlns:rdf="http://www.w3.org/1999/02/22-rdf-syntax-ns#"
   xmlns:svg="http://www.w3.org/2000/svg"
   xmlns="http://www.w3.org/2000/svg"
   xmlns:sodipodi="http://sodipodi.sourceforge.net/DTD/sodipodi-0.dtd"
   xmlns:inkscape="http://www.inkscape.org/namespaces/inkscape"
   width="256"
   height="256"
   id="svg8302"
   sodipodi:version="0.32"
   inkscape:version="0.46"
   version="1.0"
   sodipodi:docname="pictograms-nps-misc-camera.svg"
   inkscape:output_extension="org.inkscape.output.svg.inkscape">
  <defs
     id="defs8304">
    <inkscape:perspective
       sodipodi:type="inkscape:persp3d"
       inkscape:vp_x="0 : 526.18109 : 1"
       inkscape:vp_y="0 : 1000 : 0"
       inkscape:vp_z="744.09448 : 526.18109 : 1"
       inkscape:persp3d-origin="372.04724 : 350.78739 : 1"
       id="perspective8310" />
  </defs>
  <sodipodi:namedview
     id="base"
     pagecolor="#ffffff"
     bordercolor="#666666"
     borderopacity="1.0"
     gridtolerance="10000"
     guidetolerance="10"
     objecttolerance="10"
     inkscape:pageopacity="0.0"
     inkscape:pageshadow="2"
     inkscape:zoom="0.7"
     inkscape:cx="61.634556"
     inkscape:cy="136.73676"
     inkscape:document-units="px"
     inkscape:current-layer="layer1"
     showgrid="false"
     inkscape:window-width="738"
     inkscape:window-height="674"
     inkscape:window-x="0"
     inkscape:window-y="198" />
  <metadata
     id="metadata8307">
    <rdf:RDF>
      <cc:Work
         rdf:about="">
        <dc:format>image/svg+xml</dc:format>
        <dc:type
           rdf:resource="http://purl.org/dc/dcmitype/StillImage" />
      </cc:Work>
    </rdf:RDF>
  </metadata>
  <g
     inkscape:label="Layer 1"
     inkscape:groupmode="layer"
     id="layer1">
    <g
       id="g3090"
       transform="matrix(25.879499,0,0,-25.879499,225.38456,256)">
      <path
         d="M 0,0 C 0.652,0 1.182,0.529 1.182,1.182 L 1.182,8.71 C 1.182,9.362 0.652,9.892 0,9.892 L -7.527,9.892 C -8.18,9.892 -8.709,9.362 -8.709,8.71 L -8.709,1.182 C -8.709,0.529 -8.18,0 -7.527,0 L 0,0 z"
         style="fill:#231f20;fill-opacity:1;fill-rule:nonzero;stroke:none"
         id="path3092" />
    </g>
    <g
       id="g3094"
       transform="matrix(25.879499,0,0,-25.879499,30.579008,5.1912171)">
      <path
         d="M 0,0 C -0.541,0 -0.982,-0.44 -0.982,-0.981 L -0.982,-8.51 C -0.982,-9.051 -0.541,-9.49 0,-9.49 L 7.527,-9.49 C 8.068,-9.49 8.508,-9.051 8.508,-8.51 L 8.508,-0.981 C 8.508,-0.44 8.068,0 7.527,0 L 0,0 z"
         style="fill:#ffffff;fill-opacity:1;fill-rule:nonzero;stroke:none"
         id="path3096" />
    </g>
    <g
       id="g3098"
       transform="matrix(25.879499,0,0,-25.879499,146.02497,91.01819)">
      <path
         d="M 0,0 C 0.629,0 1.174,-0.342 1.475,-0.846 L 3.248,-0.848 L 3.248,0.104 C 3.248,0.457 2.961,0.744 2.607,0.744 L -4.004,0.744 C -4.357,0.744 -4.643,0.457 -4.643,0.104 L -4.641,-0.84 L -1.475,-0.842 C -1.172,-0.34 -0.629,0 0,0"
         style="fill:#231f20;fill-opacity:1;fill-rule:nonzero;stroke:none"
         id="path3100" />
    </g>
    <g
       id="g3102"
       transform="matrix(25.879499,0,0,-25.879499,68.792883,63.950723)">
      <path
         d="M 0,0 L -0.588,0 L -0.656,-0.212 L 0.049,-0.212 L 0,0 z"
         style="fill:#231f20;fill-opacity:1;fill-rule:nonzero;stroke:none"
         id="path3104" />
    </g>
    <g
       id="g3106"
       transform="matrix(25.879499,0,0,-25.879499,206.02441,61.020954)">
      <path
         d="M 0,0 L -0.783,0 L -0.922,-0.327 L 0.127,-0.327 L 0,0 z"
         style="fill:#231f20;fill-opacity:1;fill-rule:nonzero;stroke:none"
         id="path3108" />
    </g>
    <path
       d="M 136.4626,66.553998 L 119.01981,66.553998 L 119.01981,58.117272 L 136.4626,58.117272 L 136.4626,66.553998 z M 152.45613,54.727066 L 103.20744,54.727066 L 93.062677,69.58189 L 161.74687,69.58189 L 152.45613,54.727066 z"
       style="fill:#231f20;fill-opacity:1;fill-rule:nonzero;stroke:none"
       id="path3110" />
    <g
       id="g3112"
       transform="matrix(25.879499,0,0,-25.879499,186.56531,117.3039)">
      <path
         d="M 0,0 C 0.098,-0.216 0.156,-0.454 0.156,-0.707 C 0.156,-1.658 -0.615,-2.43 -1.566,-2.43 C -2.518,-2.43 -3.289,-1.658 -3.289,-0.707 C -3.289,-0.454 -3.232,-0.216 -3.133,0.001 L -6.209,0.001 L -6.209,-2.595 C -6.209,-2.947 -5.924,-3.234 -5.57,-3.234 L 1.041,-3.234 C 1.395,-3.234 1.682,-2.947 1.682,-2.595 L 1.684,0 L 0,0 z"
         style="fill:#231f20;fill-opacity:1;fill-rule:nonzero;stroke:none"
         id="path3114" />
    </g>
    <g
       id="g3116"
       transform="matrix(25.879499,0,0,-25.879499,170.33886,120.94235)">
      <path
         d="M 0,0 C -0.027,0.048 -0.061,0.093 -0.098,0.136 C -0.299,0.378 -0.6,0.536 -0.939,0.536 C -1.279,0.536 -1.58,0.379 -1.781,0.138 C -1.818,0.094 -1.852,0.049 -1.881,0 C -1.982,-0.166 -2.043,-0.358 -2.043,-0.566 C -2.043,-1.175 -1.549,-1.668 -0.939,-1.668 C -0.332,-1.668 0.162,-1.175 0.162,-0.566 C 0.162,-0.358 0.102,-0.166 0,0"
         style="fill:#231f20;fill-opacity:1;fill-rule:nonzero;stroke:none"
         id="path3118" />
    </g>
  </g>
</svg>
